<svg width="77" height="219" viewBox="0 0 77 219" fill="none" xmlns="http://www.w3.org/2000/svg">
<rect x="-111.5" y="30.5" width="188" height="188" stroke="black" stroke-opacity="0.1"/>
<rect x="-126.5" y="15.5" width="188" height="188" stroke="black" stroke-opacity="0.1"/>
<rect x="-141.5" y="0.5" width="188" height="188" stroke="black" stroke-opacity="0.1"/>
<path d="M51.9099 60.3031C54.8388 63.2321 54.8388 67.9808 51.9099 70.9097C48.981 73.8387 44.2322 73.8387 41.3033 70.9097C38.3744 67.9808 38.3744 63.2321 41.3033 60.3031C44.2322 57.3742 48.981 57.3742 51.9099 60.3031ZM43.955 68.2581C45.4194 69.7226 47.7938 69.7226 49.2583 68.2581C50.7227 66.7936 50.7227 64.4193 49.2583 62.9548C47.7938 61.4903 45.4194 61.4903 43.955 62.9548C42.4905 64.4193 42.4905 66.7936 43.955 68.2581Z" fill="#D9D9D9"/>
<path d="M51.9099 60.3031C52.6063 60.9996 53.1588 61.8264 53.5357 62.7363C53.9126 63.6463 54.1066 64.6215 54.1066 65.6064C54.1066 66.5914 53.9126 67.5666 53.5357 68.4766C53.1588 69.3865 52.6063 70.2133 51.9099 70.9097L46.6066 65.6064L51.9099 60.3031Z" fill="#FCD014"/>
<path d="M41.3022 70.9099C41.9986 71.6063 42.8254 72.1588 43.7353 72.5357C44.6453 72.9126 45.6206 73.1066 46.6055 73.1066C47.5904 73.1066 48.5657 72.9126 49.4756 72.5357C50.3855 72.1588 51.2123 71.6063 51.9088 70.9099L46.6055 65.6066L41.3022 70.9099Z" fill="#146FB1"/>
<path d="M41.3049 70.9097C40.6085 70.2133 40.0561 69.3865 39.6791 68.4766C39.3022 67.5666 39.1082 66.5914 39.1082 65.6064C39.1082 64.6215 39.3022 63.6463 39.6791 62.7363C40.0561 61.8264 40.6085 60.9996 41.3049 60.3031L46.6082 65.6064L41.3049 70.9097Z" fill="#146FB1"/>
<path d="M51.9088 60.303C51.2123 59.6065 50.3855 59.0541 49.4756 58.6772C48.5657 58.3003 47.5904 58.1063 46.6055 58.1063C45.6206 58.1063 44.6453 58.3003 43.7353 58.6772C42.8254 59.0541 41.9986 59.6065 41.3022 60.303L46.6055 65.6063L51.9088 60.303Z" fill="#FCD014"/>
<path d="M30.9099 9.30314C33.8388 12.2321 33.8388 16.9808 30.9099 19.9097C27.981 22.8387 23.2322 22.8387 20.3033 19.9097C17.3744 16.9808 17.3744 12.2321 20.3033 9.30314C23.2322 6.37421 27.981 6.37421 30.9099 9.30314ZM22.955 17.2581C24.4194 18.7226 26.7938 18.7226 28.2583 17.2581C29.7227 15.7936 29.7227 13.4193 28.2583 11.9548C26.7938 10.4903 24.4194 10.4903 22.955 11.9548C21.4905 13.4193 21.4905 15.7936 22.955 17.2581Z" fill="#D9D9D9"/>
<path d="M30.9099 9.30314C31.6063 9.99958 32.1588 10.8264 32.5357 11.7363C32.9126 12.6463 33.1066 13.6215 33.1066 14.6064C33.1066 15.5914 32.9126 16.5666 32.5357 17.4766C32.1588 18.3865 31.6063 19.2133 30.9099 19.9097L25.6066 14.6064L30.9099 9.30314Z" fill="#FCD014"/>
<path d="M20.3022 19.9099C20.9986 20.6063 21.8254 21.1588 22.7353 21.5357C23.6453 21.9126 24.6206 22.1066 25.6055 22.1066C26.5904 22.1066 27.5657 21.9126 28.4756 21.5357C29.3855 21.1588 30.2123 20.6063 30.9088 19.9099L25.6055 14.6066L20.3022 19.9099Z" fill="#146FB1"/>
<path d="M20.3049 19.9097C19.6085 19.2133 19.0561 18.3865 18.6791 17.4766C18.3022 16.5666 18.1082 15.5914 18.1082 14.6064C18.1082 13.6215 18.3022 12.6463 18.6791 11.7363C19.0561 10.8264 19.6085 9.99958 20.3049 9.30314L25.6082 14.6064L20.3049 19.9097Z" fill="#146FB1"/>
<path d="M30.9088 9.30299C30.2123 8.60655 29.3855 8.0541 28.4756 7.67719C27.5657 7.30028 26.5904 7.10629 25.6055 7.10629C24.6206 7.10629 23.6453 7.30028 22.7353 7.67719C21.8254 8.0541 20.9986 8.60655 20.3022 9.30299L25.6055 14.6063L30.9088 9.30299Z" fill="#FCD014"/>
</svg>
