<svg width="17" height="53" viewBox="0 0 17 53" fill="none" xmlns="http://www.w3.org/2000/svg">
<path d="M7.40897 1.5C7.79387 0.833334 8.75612 0.833334 9.14102 1.5L14.5753 10.9125C14.9602 11.5792 14.4791 12.4125 13.7093 12.4125L2.84069 12.4125C2.07089 12.4125 1.58976 11.5792 1.97466 10.9125L7.40897 1.5Z" fill="#8DBCF0"/>
<path d="M7.40897 19.667C7.79387 19.0003 8.75612 19.0003 9.14102 19.667L14.5753 29.0795C14.9602 29.7462 14.4791 30.5795 13.7093 30.5795L2.84069 30.5795C2.07089 30.5795 1.58976 29.7462 1.97466 29.0795L7.40897 19.667Z" fill="#459DDA"/>
<path d="M7.40897 37.8604C7.79387 37.1937 8.75612 37.1937 9.14102 37.8604L14.5753 47.2729C14.9602 47.9395 14.4791 48.7729 13.7093 48.7729H2.84069C2.07089 48.7729 1.58976 47.9395 1.97466 47.2729L7.40897 37.8604Z" fill="#003A7A"/>
</svg>
